<?xml version="1.0" encoding="UTF-8" standalone="no"?>
<svg
   xmlns:dc="http://purl.org/dc/elements/1.1/"
   xmlns:cc="http://creativecommons.org/ns#"
   xmlns:rdf="http://www.w3.org/1999/02/22-rdf-syntax-ns#"
   xmlns:svg="http://www.w3.org/2000/svg"
   xmlns="http://www.w3.org/2000/svg"
   viewBox="0 0 85.333336 85.333336"
   height="85.333336"
   width="85.333336"
   xml:space="preserve"
   id="svg2"
   version="1.1"><metadata
     id="metadata8"><rdf:RDF><cc:Work
         rdf:about=""><dc:format>image/svg+xml</dc:format><dc:type
           rdf:resource="http://purl.org/dc/dcmitype/StillImage" /></cc:Work></rdf:RDF></metadata><defs
     id="defs6"><clipPath
       id="clipPath18"
       clipPathUnits="userSpaceOnUse"><path
         id="path16"
         d="M 0,64 H 64 V 0 H 0 Z" /></clipPath></defs><g
     transform="matrix(1.3333333,0,0,-1.3333333,0,85.333333)"
     id="g10"><g
       id="g12"><g
         clip-path="url(#clipPath18)"
         id="g14"><g
           transform="translate(32,1.5)"
           id="g20"><path
             id="path22"
             style="fill:#ffffff;fill-opacity:1;fill-rule:nonzero;stroke:none"
             d="M 0,0 C -16.817,0 -30.5,13.683 -30.5,30.5 -30.5,47.318 -16.817,61 0,61 16.817,61 30.5,47.318 30.5,30.5 30.5,13.683 16.817,0 0,0" /></g><g
           transform="translate(32,64)"
           id="g24"><path
             id="path26"
             style="fill:#231f20;fill-opacity:1;fill-rule:nonzero;stroke:none"
             d="m 0,0 c -17.673,0 -32,-14.327 -32,-32 0,-17.673 14.327,-32 32,-32 17.673,0 32,14.327 32,32 C 32,-14.327 17.673,0 0,0 m 0,-3 c 15.99,0 29,-13.009 29,-29 0,-15.99 -13.01,-29 -29,-29 -15.991,0 -29,13.01 -29,29 0,15.991 13.009,29 29,29" /></g><g
           transform="translate(8.9165,21.707)"
           id="g28"><path
             id="path30"
             style="fill:none;stroke:#231f20;stroke-width:10;stroke-linecap:butt;stroke-linejoin:miter;stroke-miterlimit:10;stroke-dasharray:11.34, 11.34;stroke-dashoffset:0;stroke-opacity:1"
             d="M 0,0 C -5.685,12.749 0.042,27.692 12.79,33.376 25.539,39.062 40.482,33.335 46.167,20.586 51.852,7.838 46.125,-7.105 33.376,-12.791 20.628,-18.476 5.685,-12.749 0,0 Z" /></g><g
           transform="translate(43.2871,31.542)"
           id="g32"><path
             id="path34"
             style="fill:#231f20;fill-opacity:1;fill-rule:nonzero;stroke:none"
             d="m 0,0 c -2.076,6.503 -11.287,15.318 -11.287,15.318 0,0 -9.211,-8.815 -11.287,-15.318 -0.417,-0.959 -0.59,-2.049 -0.426,-3.194 0.36,-2.535 2.415,-4.603 4.948,-4.972 1.841,-0.268 3.54,0.323 4.78,1.423 v -0.725 c 0,-2.236 -1.364,-3.633 -2.728,-5.157 -0.269,-0.3 -0.056,-0.777 0.347,-0.777 h 8.735 c 0.401,0 0.613,0.475 0.346,0.775 -1.365,1.524 -2.73,2.922 -2.73,5.159 v 0.725 c 1.239,-1.1 2.939,-1.691 4.779,-1.423 2.534,0.368 4.588,2.436 4.95,4.971 C 0.589,-2.05 0.417,-0.959 0,0" /></g><g
           transform="translate(32,53)"
           id="g36"><path
             id="path38"
             style="fill:#231f20;fill-opacity:1;fill-rule:nonzero;stroke:none"
             d="m 0,0 c -11.598,0 -21,-9.402 -21,-21 0,-11.598 9.402,-21 21,-21 11.598,0 21,9.402 21,21 C 21,-9.402 11.598,0 0,0 m 0,-3 c 9.925,0 18,-8.075 18,-18 0,-9.925 -8.075,-18 -18,-18 -9.925,0 -18,8.075 -18,18 0,9.925 8.075,18 18,18" /></g></g></g></g></svg>